<svg id="Layer_1" data-name="Layer 1" xmlns="http://www.w3.org/2000/svg" viewBox="0 0 144 144"><defs><style>.cls-1{fill:#fff;}</style></defs><path class="cls-1" d="M115.39,113.91A10.3,10.3,0,0,0,111,105q-4.45-3.17-15.62-6.58a159.26,159.26,0,0,1-18.25-6.57Q54,81.62,54,63.65a23.79,23.79,0,0,1,5.74-15.78Q65.5,41,76,37.22a69,69,0,0,1,23.64-3.81,60.24,60.24,0,0,1,22.94,4.14,35.77,35.77,0,0,1,15.78,11.79A28.76,28.76,0,0,1,144,66.83H115.47q0-6.59-4.44-10.21c-3-2.41-7-3.62-12-3.62s-9.14,1-12.1,3.07-4.44,4.65-4.44,7.8q0,4.14,4.89,7.5t17.2,6.95a111.44,111.44,0,0,1,20.21,7.73Q144,96.1,144,113.77q0,14.12-11.74,22.17T100.06,144a69.51,69.51,0,0,1-26.12-4.69q-11.7-4.69-17.61-12.87a31.24,31.24,0,0,1-5.91-18.81H79.11q0,8.66,4.93,12.75t16,4.1q7.09,0,11.21-2.77A8.88,8.88,0,0,0,115.39,113.91Z"/><path class="cls-1" d="M28.61,71.11v36.52H0V0H47.36A60,60,0,0,1,71.45,4.55,36.88,36.88,0,0,1,87.67,17.48a32.92,32.92,0,0,1,5.75,19c0,10.49-4.55,18.72-12.84,25s-19.25,9.58-33.71,9.58Zm0-20H47.36q8.31,0,12.68-3.77T64.4,36.67q0-7.55-4.49-12T47.69,20H28.61Z"/></svg>